<svg xmlns="http://www.w3.org/2000/svg" viewBox="0 0 400 155" width="400" height="155">
  <defs>
    <!-- Background breathing glow -->
    <radialGradient id="bgGlow" cx="50%" cy="50%" r="70%">
      <stop offset="0%" stop-color="#1f2335">
        <animate attributeName="stop-color" values="#1f2335;#292e42;#1f2335" dur="8s" repeatCount="indefinite" />
      </stop>
      <stop offset="100%" stop-color="#1a1b26" />
    </radialGradient>
    
    <!-- Brilliant white shine shimmer for the vector icon -->
    <linearGradient id="iconShimmer" x1="0%" y1="0%" x2="100%" y2="100%">
      <stop offset="0%" stop-color="#2a2f4a" />
      <stop offset="35%" stop-color="#2a2f4a" />
      <stop offset="50%" stop-color="#ffffff" />
      <stop offset="65%" stop-color="#2a2f4a" />
      <stop offset="100%" stop-color="#2a2f4a" />
      <animate attributeName="x1" values="-100%; 100%" dur="3s" repeatCount="indefinite" />
      <animate attributeName="x2" values="0%; 200%" dur="3s" repeatCount="indefinite" />
    </linearGradient>

    <!-- Neon border glow filter -->
    <filter id="neonGlow" x="-20%" y="-20%" width="140%" height="140%">
      <feGaussianBlur stdDeviation="3" result="blur" />
      <feMerge>
        <feMergeNode in="blur" />
        <feMergeNode in="SourceGraphic" />
      </feMerge>
    </filter>
  </defs>
  
  <!-- Card Background -->
  <rect width="400" height="155" rx="8" fill="url(#bgGlow)"/>
  
  <!-- Shining Neon Border Trace -->
  <rect width="400" height="155" rx="8" fill="none" stroke="#bb9af7" stroke-width="2" stroke-dasharray="100 1010" stroke-dashoffset="0" filter="url(#neonGlow)">
    <animate attributeName="stroke-dashoffset" values="0; -1110" dur="5s" repeatCount="indefinite" />
  </rect>
  
  <!-- Left accent bar -->
  <rect x="1" y="8" width="4" height="139" rx="2" fill="#70a5fd"/>
  
  <!-- Falling Magic Sparkles/Stars -->
  <g>
    <path d="M 0,-5 L 1.5,-1.5 L 5,0 L 1.5,1.5 L 0,5 L -1.5,1.5 L -5,0 L -1.5,-1.5 Z" fill="#e0af68">
      <animateTransform attributeName="transform" type="translate" values="320,-10; 290,165" dur="8s" repeatCount="indefinite" />
      <animateTransform attributeName="transform" type="rotate" values="0; 360" dur="8s" repeatCount="indefinite" additive="sum" />
      <animate attributeName="opacity" values="0;0.9;0" dur="8s" repeatCount="indefinite" />
    </path>
    <path d="M 0,-4 L 1,-1 L 4,0 L 1,1 L 0,4 L -1,1 L -4,0 L -1,-1 Z" fill="#70a5fd">
      <animateTransform attributeName="transform" type="translate" values="100,-10; 130,165" dur="11s" repeatCount="indefinite" />
      <animateTransform attributeName="transform" type="rotate" values="0; -360" dur="11s" repeatCount="indefinite" additive="sum" />
      <animate attributeName="opacity" values="0;0.8;0" dur="11s" repeatCount="indefinite" />
    </path>
    <path d="M 0,-4 L 1,-1 L 4,0 L 1,1 L 0,4 L -1,1 L -4,0 L -1,-1 Z" fill="#73daca">
      <animateTransform attributeName="transform" type="translate" values="240,-10; 210,165" dur="9s" repeatCount="indefinite" />
      <animateTransform attributeName="transform" type="rotate" values="0; 360" dur="9s" repeatCount="indefinite" additive="sum" />
      <animate attributeName="opacity" values="0;0.8;0" dur="9s" repeatCount="indefinite" />
    </path>
  </g>

  <style>
    .title { 
      font-family: -apple-system, BlinkMacSystemFont, "Segoe UI", Helvetica, Arial, sans-serif; 
      font-size: 15px; 
      font-weight: bold; 
      fill: #70a5fd; 
    }
    .desc { 
      font-family: -apple-system, BlinkMacSystemFont, "Segoe UI", Helvetica, Arial, sans-serif; 
      font-size: 12px; 
      fill: #a9b1d6; 
    }
    .tech { 
      font-family: -apple-system, BlinkMacSystemFont, "Segoe UI", Helvetica, Arial, sans-serif; 
      font-size: 11px; 
      font-weight: bold; 
      fill: #73daca; 
    }
    .feature {
      font-family: -apple-system, BlinkMacSystemFont, "Segoe UI", Helvetica, Arial, sans-serif; 
      font-size: 11px; 
      fill: #a9b1d6;
    }
    
    @keyframes fadeIn {
      from { opacity: 0; }
      to { opacity: 1; }
    }
    
    .stagger-0 { animation: fadeIn 0.6s ease forwards; opacity: 0; }
    .stagger-1 { animation: fadeIn 0.6s ease 0.1s forwards; opacity: 0; }
    .stagger-2 { animation: fadeIn 0.6s ease 0.2s forwards; opacity: 0; }
    .stagger-3 { animation: fadeIn 0.6s ease 0.3s forwards; opacity: 0; }
  </style>
  
  <!-- Shimmering Vector Briefcase Icon (higher opacity, white glint) -->
  <g opacity="0.25" transform="translate(320, 45)" fill="url(#iconShimmer)">
    <path d="M 10,15 L 15,15 L 15,10 C 15,7 17,5 20,5 L 30,5 C 33,5 35,7 35,10 L 35,15 L 40,15 C 43,15 45,17 45,20 L 45,45 C 45,48 43,50 40,50 L 10,50 C 7,50 5,48 5,45 L 5,20 C 5,17 7,15 10,15 Z M 18,15 L 32,15 L 32,10 C 32,9 31,8 30,8 L 20,8 C 19,8 18,9 18,10 L 18,15 Z" />
  </g>
  
  <!-- Header -->
  <g class="stagger-0" transform="translate(20, 32)">
    <text x="0" y="0" class="title">💼 Personal Portfolio</text>
  </g>
  
  <!-- Description -->
  <g class="stagger-1" transform="translate(20, 56)">
    <text x="0" y="0" class="desc">Modern portfolio with rich interactive layout elements.</text>
  </g>
  
  <!-- Features -->
  <g class="stagger-2" transform="translate(20, 82)">
    <text x="0" y="0" class="feature">• Ultra smooth scrolling animations and transitions</text>
    <text x="0" y="18" class="feature">• Highly responsive grid mechanics for multi-display</text>
    <text x="0" y="36" class="feature">• Contact forms integration &amp; dynamic projects filters</text>
  </g>
  
  <!-- Tech Stack -->
  <g class="stagger-3" transform="translate(20, 131)">
    <circle cx="4" cy="-3" r="4" fill="#73daca"/>
    <text x="14" y="1" class="tech">HTML5 • CSS3 • JavaScript • GSAP</text>
  </g>
</svg>
