<svg xmlns="http://www.w3.org/2000/svg" viewBox="0 0 380 200" width="380" height="200">
  <rect width="378" height="198" x="1" y="1" rx="8" fill="#1a1b26" stroke="#2e3047" stroke-width="1.5"/>
  <style>
    .title { 
      font-family: -apple-system, BlinkMacSystemFont, "Segoe UI", Helvetica, Arial, sans-serif; 
      font-size: 16px; 
      font-weight: bold; 
      fill: #70a5fd; 
    }
    .label { 
      font-family: -apple-system, BlinkMacSystemFont, "Segoe UI", Helvetica, Arial, sans-serif; 
      font-size: 12px; 
      fill: #a9b1d6; 
    }
    .value { 
      font-family: -apple-system, BlinkMacSystemFont, "Segoe UI", Helvetica, Arial, sans-serif; 
      font-size: 12px; 
      font-weight: bold; 
      fill: #73daca; 
    }
  </style>
  <text x="25" y="35" class="title">Top Languages</text>
  
  <g transform="translate(25, 65)">
    <!-- TypeScript -->
    <circle cx="5" cy="-4" r="5" fill="#3178c6"/>
    <text x="20" y="0" class="label">TypeScript</text>
    <text x="330" y="0" class="value" text-anchor="end">45.0%</text>
    <rect x="20" y="6" width="310" height="6" rx="3" fill="#16161e"/>
    <rect x="20" y="6" width="139.5" height="6" rx="3" fill="#3178c6"/>
    
    <!-- JavaScript -->
    <circle cx="5" cy="26" r="5" fill="#f7df1e"/>
    <text x="20" y="30" class="label">JavaScript</text>
    <text x="330" y="30" class="value" text-anchor="end">30.0%</text>
    <rect x="20" y="36" width="310" height="6" rx="3" fill="#16161e"/>
    <rect x="20" y="36" width="93" height="6" rx="3" fill="#f7df1e"/>

    <!-- Python -->
    <circle cx="5" cy="56" r="5" fill="#3776ab"/>
    <text x="20" y="60" class="label">Python</text>
    <text x="330" y="60" class="value" text-anchor="end">15.0%</text>
    <rect x="20" y="66" width="310" height="6" rx="3" fill="#16161e"/>
    <rect x="20" y="66" width="46.5" height="6" rx="3" fill="#3776ab"/>

    <!-- HTML/CSS -->
    <circle cx="5" cy="86" r="5" fill="#e34f26"/>
    <text x="20" y="90" class="label">HTML/CSS</text>
    <text x="330" y="90" class="value" text-anchor="end">10.0%</text>
    <rect x="20" y="96" width="310" height="6" rx="3" fill="#16161e"/>
    <rect x="20" y="96" width="31" height="6" rx="3" fill="#e34f26"/>
  </g>
</svg>
