<svg xmlns="http://www.w3.org/2000/svg" viewBox="0 0 380 35" width="380" height="35">
  <rect width="380" height="35" rx="6" fill="#24283b"/>
  <style>
    .btn-text { 
      font-family: -apple-system, BlinkMacSystemFont, "Segoe UI", Helvetica, Arial, sans-serif; 
      font-size: 12px; 
      font-weight: bold; 
      fill: #70a5fd; 
    }
  </style>
  <g transform="translate(145, 22)">
    <!-- GitHub Icon -->
    <path d="M0 -10 C-5.52 -10 -10 -5.52 -10 0 C-10 4.42 -7.14 8.18 -3.16 9.5 C-2.66 9.59 -2.48 9.28 -2.48 9.02 C-2.48 8.78 -2.49 8.15 -2.49 7.31 C-5.27 7.92 -5.86 5.97 -5.86 5.97 C-6.31 4.82 -6.97 4.51 -6.97 4.51 C-7.88 3.89 -6.9 3.9 -6.9 3.9 C-5.9 3.97 -5.37 4.93 -5.37 4.93 C-4.48 6.46 -3.03 6.02 -2.46 5.76 C-2.37 5.12 -2.11 4.68 -1.82 4.43 C-4.04 4.18 -6.37 3.32 -6.37 -0.52 C-6.37 -1.61 -5.98 -2.51 -5.34 -3.21 C-5.44 -3.46 -5.79 -4.48 -5.24 -5.86 C-5.24 -5.86 -4.4 -6.13 -2.49 -4.84 C-1.69 -5.06 -0.84 -5.17 0 -5.17 C0.84 -5.17 1.69 -5.06 2.49 -4.84 C4.4 -6.13 5.24 -5.86 5.24 -5.86 C5.79 -4.48 5.44 -3.46 5.34 -3.21 C5.98 -2.51 6.37 -1.61 6.37 -0.52 C6.37 3.32 4.04 4.18 1.82 4.43 C2.11 4.68 2.37 5.12 2.37 5.76 C2.37 6.69 2.36 7.77 2.36 8.01 C2.36 8.27 2.54 8.58 3.05 8.48 C7.03 7.16 9.88 3.42 9.88 -1 C9.88 -6.52 5.52 -11 0 -11 Z" fill="#70a5fd" transform="scale(0.85)"/>
    <text x="18" y="1" class="btn-text">Repo View</text>
  </g>
</svg>
